<?xml version="1.0" encoding="UTF-8"?>
<svg id="Layer_2" data-name="Layer 2" xmlns="http://www.w3.org/2000/svg" viewBox="0 0 693.09 264.75">
  <defs>
    <style>
      .cls-1 {
        fill: #fff;
      }

      .cls-2 {
        fill: #28d4a6;
      }
    </style>
  </defs>
  <g id="Layer_1-2" data-name="Layer 1">
    <g>
      <g>
        <path class="cls-1" d="M232.08,43.58v70.71c28.25-39.68,81.8-20.69,94.78,22.03,16.99,55.91-40.89,113.12-89.59,69.48l-5.19-6.94v18.02h-29.12V43.58h29.12ZM261.04,118.64c-41.18,4.9-40.57,74.74,1.2,78.13,54.26,4.41,49.84-84.21-1.2-78.13Z"/>
        <path class="cls-1" d="M424.11,96.96v79.38c0,1.56,3.22,8.64,4.27,10.29,7.79,12.22,27.05,13.21,38.24,5.19,5.89-4.22,13.64-14.99,13.64-22.41v-72.45h27.73v120.63l-27.73-1.04v-15.94c0-.16,1.32-.93.34-1.04h-1.02c-7.63,15.15-25.84,22.93-42.56,21.41-21.83-1.99-42.03-22.31-42.03-44.63v-79.38h29.12Z"/>
        <polygon class="cls-1" points="374.2 216.89 345.95 217.45 344.42 216.48 344.38 43.58 372.53 42.93 374.2 43.92 374.2 216.89"/>
        <path class="cls-1" d="M605.05,94.18v29.12c-15.39-5.7-32.95-3.84-41.03,12-1.35,2.64-4.03,10.63-4.03,13.3v67.94l-1.01.87-26.72.17v-120.63h27.73v16.64l7.95-10.42c10.05-9.35,23.78-12.73,37.11-8.99Z"/>
        <path class="cls-1" d="M693.09,94.18v29.12c-16.75-6.74-36.14-2.01-42.31,16.27-.52,1.55-2.05,7.1-2.05,8.35v68.63l-1.09.96-26.64.08v-120.63h27.73v16.64l10.39-12.83c9.88-7.66,21.91-9.84,33.98-6.58Z"/>
      </g>
      <g>
        <path class="cls-2" d="M59.71,91.23c-6.9-5.4-16.81-12.11-22.79-18.06-18.08-17.97,13.61-34.06,27.91-38.22,19.59-5.69,42.08-3.2,59.72,7.05,10.88,6.32,24.06,17.21,12.71,30.02-.36.41-.88.76-1.17,1.31l-49.51,38.85,25.24,19.93,41.85-33.21c45.33-41.46,2.78-86.25-43.45-96.38-31.08-6.82-67.34.15-91.07,21.98-27.67,25.44-23.09,57.46,5.82,79.21l36.03,28.4,25.58-19.92c-8.91-6.92-17.99-13.99-26.88-20.95Z"/>
        <polygon class="cls-1" points="111.98 132.1 86.57 151.97 61.16 132.1 86.74 112.18 111.98 132.1"/>
        <path class="cls-2" d="M138.4,152.87c-8.63-6.94-17.87-14.16-26.72-20.77l-25.41,19.87c7.87,6.03,15.77,12.05,23.57,18.17,7.89,6.18,17.99,13.3,25.09,20.08,12.95,12.36,4.76,23.4-7.54,31.33-19.57,12.61-44.8,15.07-66.7,7.38-16.34-5.74-42.32-21.64-21.75-39.7l47.33-37.25-25.41-19.87c-10.12,8.17-20.67,15.83-30.71,24.09-22.32,18.35-40.93,40.2-22.9,70.04,21.21,35.09,73.12,45.29,110.33,34.32,28.19-8.31,61.93-34.31,54.12-67.58-4.11-17.5-20.03-29.43-33.3-40.1Z"/>
      </g>
    </g>
  </g>
</svg>